<svg xmlns="http://www.w3.org/2000/svg" width="16px" height="16px" viewBox="0 0 80 80">
	<g fill="#89b400">
		<path d="m23.10363,1.04849l16.35465,0l0,14.79199l-16.35465,0l0,-14.79199zm0,15.77589l16.35465,0l0,14.79572l-16.35465,0l0,-14.79572zm0,15.77962l16.35465,0l0,14.78827l-16.35465,0l0,-14.78827zm0,15.77589l16.35465,0l0,14.79199l-16.35465,0l0,-14.79199zm0,15.77589l16.35465,0l0,14.79572l-16.35465,0l0,-14.79572zm17.44222,-31.55178l16.34641,0l0,14.78827l-16.34641,0l0,-14.78827zm0,31.55178l16.34641,0l0,14.79572l-16.34641,0l0,-14.79572zm0,-63.10729l16.34641,0l0,14.79199l-16.34641,0l0,-14.79199zm17.4381,15.77589l16.35053,0l0,14.79572l-16.35053,0l0,-14.79572zm0,31.55551l16.35053,0l0,14.79199l-16.35053,0l0,-14.79199zm0,-15.77589l7.62943,0l0,6.90219l-7.62943,0l0,-6.90219zm0,7.88608l7.62943,0l0,6.90219l-7.62943,0l0,-6.90219zm0,23.6657l7.62943,0l0,6.90219l-7.62943,0l0,-6.90219zm0,-55.21748l7.62943,0l0,6.90219l-7.62943,0l0,-6.90219zm0,-3.94677l3.27093,0l0,2.95914l-3.27093,0l0,-2.95914zm8.72111,7.88981l3.26681,0l0,2.95914l-3.26681,0l0,-2.95914zm0,19.72266l3.26681,0l0,2.95542l-3.26681,0l0,-2.95542zm0,11.83285l3.26681,0l0,2.95542l-3.26681,0l0,-2.95542zm0,19.71893l3.26681,0l0,2.95914l-3.26681,0l0,-2.95914zm-8.72111,7.88981l3.27093,0l0,2.95914l-3.27093,0l0,-2.95914zm-52.31841,-70.9971l16.35053,0l0,14.79199l-16.35053,0l0,-14.79199zm0,63.10729l16.35053,0l0,14.79572l-16.35053,0l0,-14.79572z" stroke="null"/>
	</g>
</svg>
